<svg width="128" height="128" viewBox="0 0 128 128" fill="none" xmlns="http://www.w3.org/2000/svg">
<rect width="128" height="128" rx="25" fill="#09090B"/>
<path fill-rule="evenodd" clip-rule="evenodd" d="M38 33.4309C38 33.0767 38.1407 32.737 38.3912 32.4866L46.4866 24.3912C47.0081 23.8696 47.8537 23.8696 48.3753 24.3912L74.8168 50.8327C75.3384 51.3542 76.184 51.3542 76.7055 50.8327L86.7965 40.7417C87.6379 39.9003 89.0764 40.4962 89.0764 41.686L89.0764 94.5691C89.0764 94.9233 88.9357 95.2629 88.6852 95.5134L80.5898 103.609C80.0683 104.13 79.2227 104.13 78.7011 103.609L52.2596 77.1673C51.738 76.6458 50.8924 76.6458 50.3709 77.1673L40.2799 87.2583C39.4385 88.0996 38 87.5038 38 86.314L38 33.4309ZM51.355 72.959C51.355 74.1488 52.7935 74.7447 53.6348 73.9033L59.8143 67.7239C60.3358 67.2024 61.1814 67.2024 61.703 67.7239L73.4416 79.4625C74.2829 80.3038 75.7214 79.7079 75.7214 78.5181L75.7214 55.041C75.7214 53.8512 74.2829 53.2553 73.4416 54.0966L67.2621 60.2761C66.7406 60.7976 65.895 60.7976 65.3734 60.2761L53.6348 48.5375C52.7935 47.6962 51.355 48.2921 51.355 49.4819L51.355 72.959Z" fill="#FAFAFA"/>
</svg>
