<svg width="128" height="200" viewBox="0 0 128 200" fill="none" xmlns="http://www.w3.org/2000/svg">
<path fill-rule="evenodd" clip-rule="evenodd" d="M0 23.5773C-2.77092e-07 22.6918 0.351761 21.8426 0.977898 21.2165L21.2165 0.977895C22.5203 -0.325967 24.6343 -0.325964 25.9382 0.977898L92.042 67.0817C93.3459 68.3856 95.4599 68.3856 96.7637 67.0817L121.991 41.8542C124.095 39.7509 127.691 41.2405 127.691 44.215L127.691 176.423C127.691 177.308 127.339 178.157 126.713 178.784L106.474 199.022C105.171 200.326 103.057 200.326 101.753 199.022L35.6489 132.918C34.3451 131.614 32.2311 131.614 30.9272 132.918L5.69964 158.146C3.59635 160.249 4.26958e-05 158.759 4.1765e-05 155.785L0 23.5773ZM33.3875 122.398C33.3875 125.372 36.9838 126.862 39.0871 124.758L54.5357 109.31C55.8396 108.006 57.9536 108.006 59.2574 109.31L88.6039 138.656C90.7072 140.759 94.3035 139.27 94.3035 136.295L94.3035 77.6025C94.3035 74.628 90.7072 73.1383 88.6039 75.2416L73.1552 90.6903C71.8514 91.9941 69.7374 91.9941 68.4335 90.6902L39.0871 61.3438C36.9838 59.2405 33.3875 60.7302 33.3875 63.7047L33.3875 122.398Z" fill="#d4d4d8"/>
</svg>
